HIERARCHY
ROOT joint_Root
{
	OFFSET 0.0 0.0 0.0
	CHANNELS 6 Xposition Yposition Zposition Zrotation Xrotation Yrotation 
	JOINT Hips
	{
		OFFSET 4.5925 91.4895 -427.239
		CHANNELS 6 Xposition Yposition Zposition Zrotation Xrotation Yrotation 
		JOINT Spine
		{
			OFFSET 15.7357 0.0 0.0
			CHANNELS 6 Xposition Yposition Zposition Zrotation Xrotation Yrotation 
			JOINT Chest
			{
				OFFSET 8.98455 -0.406207 0.0
				CHANNELS 6 Xposition Yposition Zposition Zrotation Xrotation Yrotation 
				JOINT Neck
				{
					OFFSET 16.3773 0.0 0.0
					CHANNELS 6 Xposition Yposition Zposition Zrotation Xrotation Yrotation 
					JOINT Head
					{
						OFFSET 6.45672 0.0 0.0
						CHANNELS 6 Xposition Yposition Zposition Zrotation Xrotation Yrotation 
						End Site
						{
							OFFSET 0.0 0.0 0.0
						}
					}
				}
				JOINT Shoulder_L
				{
					OFFSET 12.9942 -0.242716 4.98039
					CHANNELS 6 Xposition Yposition Zposition Zrotation Xrotation Yrotation 
					JOINT UpperArm_L
					{
						OFFSET 5.34809 0.0 0.0
						CHANNELS 6 Xposition Yposition Zposition Zrotation Xrotation Yrotation 
						JOINT LowerArm_L
						{
							OFFSET 24.3286 1.87007e-05 0.0
							CHANNELS 6 Xposition Yposition Zposition Zrotation Xrotation Yrotation 
							JOINT Hand_L
							{
								OFFSET 22.2916 0.0 0.0
								CHANNELS 6 Xposition Yposition Zposition Zrotation Xrotation Yrotation 
								End Site
								{
									OFFSET 0.0 0.0 0.0
								}
							}
						}
					}
				}
				JOINT Shoulder_R
				{
					OFFSET 12.9945 -0.242716 -4.98039
					CHANNELS 6 Xposition Yposition Zposition Zrotation Xrotation Yrotation 
					JOINT UpperArm_R
					{
						OFFSET -5.34813 0.0 0.0
						CHANNELS 6 Xposition Yposition Zposition Zrotation Xrotation Yrotation 
						JOINT LowerArm_R
						{
							OFFSET -24.3289 0.000322201 0.0
							CHANNELS 6 Xposition Yposition Zposition Zrotation Xrotation Yrotation 
							JOINT Hand_R
							{
								OFFSET -22.2915 -0.000108084 0.0
								CHANNELS 6 Xposition Yposition Zposition Zrotation Xrotation Yrotation 
								End Site
								{
									OFFSET 0.0 0.0 0.0
								}
							}
						}
					}
				}
			}
		}
		JOINT UpperLeg_L
		{
			OFFSET -2.19248 -6.46944 0.0
			CHANNELS 6 Xposition Yposition Zposition Zrotation Xrotation Yrotation 
			JOINT LowerLeg_L
			{
				OFFSET 39.0811 0.0 -1.23785e-05
				CHANNELS 6 Xposition Yposition Zposition Zrotation Xrotation Yrotation 
				JOINT Foot_L
				{
					OFFSET 40.9854 0.0 -1.26872e-05
					CHANNELS 6 Xposition Yposition Zposition Zrotation Xrotation Yrotation 
					JOINT Toes_L
					{
						OFFSET 11.7543 0.0 0.0
						CHANNELS 6 Xposition Yposition Zposition Zrotation Xrotation Yrotation 
						End Site
						{
							OFFSET 0.0 0.0 0.0
						}
					}
				}
			}
		}
		JOINT UpperLeg_R
		{
			OFFSET -2.19251 6.46944 0.0
			CHANNELS 6 Xposition Yposition Zposition Zrotation Xrotation Yrotation 
			JOINT LowerLeg_R
			{
				OFFSET -39.0811 -0.00228153 -0.0401928
				CHANNELS 6 Xposition Yposition Zposition Zrotation Xrotation Yrotation 
				JOINT Foot_R
				{
					OFFSET -40.9854 0.0 0.0
					CHANNELS 6 Xposition Yposition Zposition Zrotation Xrotation Yrotation 
					JOINT Toes_R
					{
						OFFSET -11.7543 0.0 0.0
						CHANNELS 6 Xposition Yposition Zposition Zrotation Xrotation Yrotation 
						End Site
						{
							OFFSET 0.0 0.0 0.0
						}
					}
				}
			}
		}
	}
}
MOTION
Frames:	6
Frame Time:	0.0333333
0.000000 0.000000 0.000000 0.000000 0.000000 -0.000000 3.800350 90.735300 -1.877080 90.874600 -5.783650 10.328100 15.735700 0.000005 -0.000001 90.833700 83.589300 -92.926500 8.984550 -0.406207 -0.000000 5.061690 0.235460 -4.191190 16.377300 -0.000001 -0.000001 15.119400 -0.705096 5.742330 6.456720 -0.000001 -0.000000 9.274970 1.167340 -6.460850 12.994200 -0.242716 4.980390 -91.172200 3.773830 -72.730800 5.348090 -0.000007 -0.000001 -62.148800 35.391900 -14.519700 24.328600 0.000019 0.000005 8.049970 22.625800 -20.184600 22.291600 -0.000001 0.000005 8.536080 5.252740 1.360350 12.994500 -0.242716 -4.980390 91.053500 -3.051750 -70.943800 -5.348130 -0.000001 -0.000004 -62.760600 -48.452000 -97.128500 -24.328900 0.000322 -0.000009 -13.021100 -12.378900 -47.167200 -22.291500 -0.000108 -0.000004 23.791200 5.313150 -0.298245 -2.192480 -6.469440 -0.000000 -179.591000 -13.509200 -1.354200 39.081100 -0.000007 -0.000012 -0.064084 0.106830 30.958600 40.985400 -0.000006 -0.000013 2.467260 0.937212 -69.765500 11.754300 -0.000000 0.000003 -0.000150 -0.001456 -16.632900 -2.192510 6.469440 -0.000001 171.490000 17.526900 178.096000 -39.081100 -0.002282 -0.040193 0.013372 -0.015957 32.268300 -40.985400 0.000008 0.000006 3.973310 11.151000 -69.999800 -11.754300 -0.000006 -0.000006 -0.004655 -0.058084 -18.936200
0.000000 0.000000 0.000000 0.000000 0.000000 -0.000000 3.376100 90.785200 -1.803870 90.684700 -5.474670 10.148400 15.735700 0.000005 -0.000001 91.339100 83.629800 -93.295500 8.984550 -0.406207 -0.000000 4.979760 0.344642 -3.923260 16.377300 -0.000001 -0.000001 15.103600 -1.018980 6.355890 6.456720 -0.000001 -0.000000 9.206260 0.882013 -6.070350 12.994200 -0.242716 4.980390 -91.137300 3.683070 -72.826800 5.348090 -0.000007 -0.000001 -62.431800 35.733800 -14.488700 24.328600 0.000019 0.000005 8.128230 22.468600 -20.491200 22.291600 -0.000001 0.000005 8.450340 5.255480 1.287640 12.994500 -0.242716 -4.980390 91.189300 -3.373830 -70.569700 -5.348130 -0.000001 -0.000004 -61.247400 -48.463000 -99.914600 -24.328900 0.000322 -0.000009 -13.188100 -11.347800 -49.978600 -22.291500 -0.000108 -0.000004 24.329400 5.344780 -1.221150 -2.192480 -6.469440 -0.000000 -179.143000 -13.214900 -1.412160 39.081100 -0.000007 -0.000012 -0.076647 0.128263 30.861700 40.985400 -0.000006 -0.000013 2.190360 1.135850 -69.706100 11.754300 -0.000000 0.000003 -0.000167 -0.001591 -16.637900 -2.192510 6.469440 -0.000001 171.868000 18.012800 178.281000 -39.081100 -0.002282 -0.040193 -0.005247 0.013710 31.933300 -40.985400 0.000008 0.000006 4.088080 11.227100 -70.004300 -11.754300 -0.000006 -0.000006 -0.004609 -0.057629 -18.917600
0.000000 0.000000 0.000000 0.000000 0.000000 -0.000000 2.958150 90.839600 -1.711130 90.511100 -5.146890 10.025000 15.735700 0.000005 -0.000001 91.905000 83.666500 -93.736100 8.984550 -0.406207 -0.000000 4.904220 0.465927 -3.677990 16.377300 -0.000001 -0.000001 15.143100 -1.371940 7.007620 6.456720 -0.000001 -0.000000 9.183770 0.624008 -5.638930 12.994200 -0.242716 4.980390 -91.087500 3.557840 -72.991500 5.348090 -0.000007 -0.000001 -62.808500 36.129100 -14.390800 24.328600 0.000019 0.000005 8.147080 22.343100 -20.635500 22.291600 -0.000001 0.000005 8.442060 5.257080 1.244910 12.994500 -0.242716 -4.980390 91.361100 -3.769400 -70.128500 -5.348130 -0.000001 -0.000004 -59.826800 -48.321800 -102.596000 -24.328900 0.000322 -0.000009 -12.681800 -9.995940 -52.353100 -22.291500 -0.000108 -0.000004 24.615800 5.370760 -2.010150 -2.192480 -6.469440 -0.000000 -178.674000 -13.050800 -1.358760 39.081100 -0.000007 -0.000012 -0.086856 0.146273 30.701700 40.985400 -0.000006 -0.000013 1.945380 1.435210 -69.641400 11.754300 -0.000000 0.000003 -0.000163 -0.001555 -16.636600 -2.192510 6.469440 -0.000001 172.210000 18.502600 178.557000 -39.081100 -0.002282 -0.040193 -0.014232 0.028537 31.562800 -40.985400 0.000008 0.000006 4.211260 11.278400 -70.011200 -11.754300 -0.000006 -0.000006 -0.004479 -0.056337 -18.865000
0.000000 0.000000 0.000000 0.000000 0.000000 -0.000000 2.544790 90.874200 -1.595650 90.334200 -4.811230 9.914750 15.735700 0.000005 -0.000001 92.404600 83.719300 -94.130900 8.984550 -0.406207 -0.000000 4.795410 0.570719 -3.472660 16.377300 -0.000001 -0.000001 15.209800 -1.713070 7.704110 6.456720 -0.000001 -0.000000 9.229660 0.392748 -5.168560 12.994200 -0.242716 4.980390 -91.037500 3.428870 -73.154400 5.348090 -0.000007 -0.000001 -63.226600 36.435200 -14.206600 24.328600 0.000019 0.000005 8.183880 22.443700 -20.641200 22.291600 -0.000001 0.000005 8.547840 5.260500 1.153620 12.994500 -0.242716 -4.980390 91.544600 -4.159560 -69.607800 -5.348130 -0.000001 -0.000004 -58.675800 -47.848500 -105.190000 -24.328900 0.000322 -0.000009 -11.922700 -8.689450 -54.414200 -22.291500 -0.000108 -0.000004 24.813000 5.391250 -2.654840 -2.192480 -6.469440 -0.000000 -178.217000 -12.826900 -1.338620 39.081100 -0.000007 -0.000012 -0.099097 0.167349 30.632400 40.985400 -0.000006 -0.000013 1.694040 1.685560 -69.626600 11.754300 -0.000000 0.000003 -0.000163 -0.001556 -16.636600 -2.192510 6.469440 -0.000001 172.530000 19.011500 178.822000 -39.081100 -0.002282 -0.040193 -0.029162 0.053491 31.251500 -40.985400 0.000008 0.000006 4.195910 11.373200 -70.021300 -11.754300 -0.000006 -0.000006 -0.004282 -0.054343 -18.783800
0.000000 0.000000 0.000000 0.000000 0.000000 -0.000000 2.148560 90.907200 -1.461360 90.170300 -4.466460 9.860160 15.735700 0.000005 -0.000001 92.792300 83.762000 -94.426100 8.984550 -0.406207 -0.000000 4.706680 0.650220 -3.290750 16.377300 -0.000001 -0.000001 15.300400 -2.060690 8.400450 6.456720 -0.000001 -0.000000 9.322780 0.121732 -4.667680 12.994200 -0.242716 4.980390 -91.011400 3.372070 -73.293200 5.348090 -0.000007 -0.000001 -63.561600 36.768800 -14.015400 24.328600 0.000019 0.000005 8.177490 22.482900 -20.595100 22.291600 -0.000001 0.000005 8.510870 5.260840 1.144480 12.994500 -0.242716 -4.980390 91.752900 -4.619190 -69.192400 -5.348130 -0.000001 -0.000004 -57.919500 -47.228100 -107.528000 -24.328900 0.000322 -0.000009 -10.790000 -7.305420 -56.287000 -22.291500 -0.000108 -0.000004 24.815000 5.403070 -3.037950 -2.192480 -6.469440 -0.000000 -177.785000 -12.580400 -1.254860 39.081100 -0.000007 -0.000012 -0.105152 0.178201 30.544100 40.985400 -0.000006 -0.000013 1.449060 1.907890 -69.609200 11.754300 -0.000000 0.000003 -0.000158 -0.001521 -16.635300 -2.192510 6.469440 -0.000001 172.807000 19.500100 179.166000 -39.081100 -0.002282 -0.040193 -0.041782 0.075216 30.937100 -40.985400 0.000008 0.000006 4.239670 11.402300 -70.064400 -11.754300 -0.000006 -0.000006 -0.004205 -0.053556 -18.751700
0.000000 0.000000 0.000000 0.000000 0.000000 -0.000000 1.769010 90.924600 -1.303780 89.990400 -4.063880 9.893700 15.735700 0.000005 -0.000001 93.112300 83.779000 -94.666100 8.984550 -0.406207 -0.000000 4.669460 0.716230 -3.133180 16.377300 -0.000001 -0.000001 15.347100 -2.419440 9.101140 6.456720 -0.000001 -0.000000 9.459510 -0.192941 -4.070930 12.994200 -0.242716 4.980390 -90.984800 3.315010 -73.444700 5.348090 -0.000007 -0.000001 -63.937000 36.986800 -13.793000 24.328600 0.000019 0.000005 8.155870 22.583300 -20.465100 22.291600 -0.000001 0.000005 8.564030 5.261740 1.120470 12.994500 -0.242716 -4.980390 91.901100 -4.955120 -68.978800 -5.348130 -0.000001 -0.000004 -57.538800 -46.732500 -109.629000 -24.328900 0.000322 -0.000009 -9.377690 -5.961290 -57.833200 -22.291500 -0.000108 -0.000004 24.465600 5.415360 -3.444400 -2.192480 -6.469440 -0.000000 -177.317000 -12.291400 -1.095550 39.081100 -0.000007 -0.000012 -0.116230 0.197144 30.522400 40.985400 -0.000006 -0.000013 1.226060 2.198860 -69.649100 11.754300 -0.000000 0.000003 -0.000159 -0.001524 -16.635400 -2.192510 6.469440 -0.000001 173.012000 20.014600 179.632000 -39.081100 -0.002282 -0.040193 -0.057057 0.101910 30.636400 -40.985400 0.000008 0.000006 4.161800 11.547600 -70.116600 -11.754300 -0.000006 -0.000006 -0.003937 -0.050779 -18.638600
